<svg xmlns="http://www.w3.org/2000/svg" xmlns:xlink="http://www.w3.org/1999/xlink" width="500" zoomAndPan="magnify" viewBox="0 0 375 374.999991" height="500" preserveAspectRatio="xMidYMid meet" version="1.0"><defs><g/><clipPath id="a4c4a69e36"><path d="M 107 124 L 289 124 L 289 277 L 107 277 Z M 107 124 " clip-rule="nonzero"/></clipPath><clipPath id="8469f20aa3"><path d="M 131.339844 91.976562 L 291.050781 126.980469 L 256.046875 286.6875 L 96.339844 251.6875 Z M 131.339844 91.976562 " clip-rule="nonzero"/></clipPath><clipPath id="c630716acb"><path d="M 131.339844 91.976562 L 291.050781 126.980469 L 256.046875 286.6875 L 96.339844 251.6875 Z M 131.339844 91.976562 " clip-rule="nonzero"/></clipPath><clipPath id="eb0f237013"><path d="M 131.339844 91.976562 L 291.050781 126.980469 L 256.046875 286.6875 L 96.339844 251.6875 Z M 131.339844 91.976562 " clip-rule="nonzero"/></clipPath><clipPath id="cc3e069653"><path d="M 62 110 L 350 110 L 350 348 L 62 348 Z M 62 110 " clip-rule="nonzero"/></clipPath><clipPath id="674db82d12"><path d="M 416.746094 252.785156 L 151.539062 419.957031 L 61.554688 277.199219 L 326.765625 110.027344 Z M 416.746094 252.785156 " clip-rule="nonzero"/></clipPath><clipPath id="8655b828fa"><path d="M 416.746094 252.785156 L 151.539062 419.957031 L 61.554688 277.199219 L 326.765625 110.027344 Z M 416.746094 252.785156 " clip-rule="nonzero"/></clipPath></defs><g fill="#000000" fill-opacity="1"><g transform="translate(67.38509, 267.05817)"><g><path d="M -30.78125 -6.625 L -25.5625 -9.453125 L -22.53125 -3.859375 L -6.71875 -12.421875 L -3.15625 -5.828125 L -18.96875 2.734375 L -15.96875 8.265625 L -21.1875 11.09375 Z M -30.78125 -6.625 "/></g></g></g><g fill="#000000" fill-opacity="1"><g transform="translate(54.341573, 241.468973)"><g><path d="M -3.96875 -13.125 L -10.890625 -6.34375 L -10.875 -6.3125 L -2.65625 -8.796875 L -0.484375 -1.609375 L -23.390625 5.3125 L -26.625 -5.375 C -27.1875 -7.226562 -27.332031 -8.910156 -27.0625 -10.421875 C -26.800781 -11.941406 -26.203125 -13.203125 -25.265625 -14.203125 C -24.335938 -15.203125 -23.164062 -15.914062 -21.75 -16.34375 C -20.21875 -16.8125 -18.726562 -16.796875 -17.28125 -16.296875 C -15.84375 -15.796875 -14.617188 -14.828125 -13.609375 -13.390625 L -6.359375 -21.03125 Z M -15.671875 -4.859375 L -16.53125 -7.71875 C -16.738281 -8.40625 -17.046875 -8.875 -17.453125 -9.125 C -17.867188 -9.375 -18.410156 -9.398438 -19.078125 -9.203125 C -19.691406 -9.015625 -20.117188 -8.691406 -20.359375 -8.234375 C -20.597656 -7.773438 -20.613281 -7.210938 -20.40625 -6.546875 L -19.546875 -3.6875 Z M -15.671875 -4.859375 "/></g></g></g><g fill="#000000" fill-opacity="1"><g transform="translate(46.185323, 212.199665)"><g><path d="M -4.84375 -16.71875 L -4.265625 -8.765625 L -0.578125 -7.859375 L 0 0 L -24.5 -6.953125 L -25.140625 -15.59375 L -1.921875 -26.046875 L -1.34375 -18.171875 Z M -10.359375 -14.46875 L -16.84375 -11.84375 L -10.03125 -10.15625 Z M -10.359375 -14.46875 "/></g></g></g><g fill="#000000" fill-opacity="1"><g transform="translate(44.586655, 178.491205)"><g><path d="M -19.625 -29.171875 L 2.75 -17.53125 L 1.25 -7.953125 L -23.625 -3.703125 L -22.390625 -11.578125 L -5.375 -13.90625 L -20.859375 -21.296875 Z M -19.625 -29.171875 "/></g></g></g><g fill="#000000" fill-opacity="1"><g transform="translate(50.950066, 145.479272)"><g><path d="M -13.546875 -14.953125 L -10.78125 -13.90625 L -8.140625 -20.859375 L -2.859375 -18.859375 L -5.5 -11.90625 L -2.34375 -10.71875 L 0.65625 -18.625 L 6.25 -16.5 L 0.59375 -1.578125 L -21.78125 -10.046875 L -16.125 -24.96875 L -10.546875 -22.859375 Z M -13.546875 -14.953125 "/></g></g></g><g fill="#000000" fill-opacity="1"><g transform="translate(61.233429, 120.582826)"><g><path d="M -0.125 -10.796875 L 3.59375 -17 L 8.453125 -14.078125 L 0.875 -1.453125 L -19.640625 -13.765625 L -15.78125 -20.1875 Z M -0.125 -10.796875 "/></g></g></g><g fill="#000000" fill-opacity="1"><g transform="translate(75.278365, 99.076864)"><g/></g></g><g fill="#000000" fill-opacity="1"><g transform="translate(83.885522, 87.983221)"><g><path d="M 14.90625 -13.109375 L 12.640625 -13.171875 C 11.878906 -10.816406 10.425781 -8.695312 8.28125 -6.8125 C 6.832031 -5.53125 5.363281 -4.644531 3.875 -4.15625 C 2.394531 -3.675781 1.003906 -3.597656 -0.296875 -3.921875 C -1.609375 -4.253906 -2.742188 -4.960938 -3.703125 -6.046875 C -4.609375 -7.085938 -5.171875 -8.265625 -5.390625 -9.578125 C -5.609375 -10.898438 -5.445312 -12.328125 -4.90625 -13.859375 C -6.519531 -14.148438 -7.796875 -14.828125 -8.734375 -15.890625 C -9.535156 -16.804688 -10.03125 -17.851562 -10.21875 -19.03125 C -10.414062 -20.21875 -10.242188 -21.445312 -9.703125 -22.71875 C -9.171875 -23.988281 -8.257812 -25.191406 -6.96875 -26.328125 C -5.675781 -27.472656 -4.363281 -28.210938 -3.03125 -28.546875 C -1.707031 -28.878906 -0.488281 -28.863281 0.625 -28.5 C 1.75 -28.144531 2.703125 -27.523438 3.484375 -26.640625 L -1.625 -22.140625 C -1.914062 -22.460938 -2.222656 -22.617188 -2.546875 -22.609375 C -2.878906 -22.609375 -3.171875 -22.5 -3.421875 -22.28125 C -3.703125 -22.039062 -3.867188 -21.753906 -3.921875 -21.421875 C -3.972656 -21.085938 -3.867188 -20.78125 -3.609375 -20.5 C -3.140625 -19.957031 -2.222656 -19.660156 -0.859375 -19.609375 L 6.71875 -19.234375 C 6.550781 -19.898438 6.3125 -20.601562 6 -21.34375 L 5.859375 -21.640625 L 11.3125 -26.4375 L 11.671875 -25.546875 C 12.492188 -23.285156 13.015625 -21.078125 13.234375 -18.921875 L 21.09375 -18.53125 Z M 4.765625 -11.609375 C 5.367188 -12.148438 5.851562 -12.742188 6.21875 -13.390625 L 0.765625 -13.5625 C 0.648438 -13.09375 0.640625 -12.664062 0.734375 -12.28125 C 0.828125 -11.894531 0.992188 -11.566406 1.234375 -11.296875 C 1.617188 -10.859375 2.132812 -10.65625 2.78125 -10.6875 C 3.425781 -10.71875 4.085938 -11.023438 4.765625 -11.609375 Z M 4.765625 -11.609375 "/></g></g></g><g fill="#000000" fill-opacity="1"><g transform="translate(112.18217, 65.322804)"><g/></g></g><g fill="#000000" fill-opacity="1"><g transform="translate(124.156627, 57.852979)"><g><path d="M -3.578125 -11.5 C -4.460938 -13.6875 -4.804688 -15.816406 -4.609375 -17.890625 C -4.421875 -19.972656 -3.695312 -21.820312 -2.4375 -23.4375 C -1.175781 -25.0625 0.570312 -26.328125 2.8125 -27.234375 C 4.726562 -28.015625 6.59375 -28.347656 8.40625 -28.234375 C 10.21875 -28.128906 11.863281 -27.609375 13.34375 -26.671875 C 14.820312 -25.742188 16.070312 -24.46875 17.09375 -22.84375 L 9.765625 -19.875 C 9.140625 -20.46875 8.429688 -20.835938 7.640625 -20.984375 C 6.859375 -21.140625 6.070312 -21.0625 5.28125 -20.75 C 4.113281 -20.269531 3.375 -19.453125 3.0625 -18.296875 C 2.75 -17.148438 2.890625 -15.84375 3.484375 -14.375 C 4.085938 -12.882812 4.898438 -11.835938 5.921875 -11.234375 C 6.953125 -10.628906 8.050781 -10.566406 9.21875 -11.046875 C 10.007812 -11.359375 10.632812 -11.84375 11.09375 -12.5 C 11.550781 -13.164062 11.796875 -13.929688 11.828125 -14.796875 L 19.15625 -17.765625 C 19.550781 -15.890625 19.539062 -14.097656 19.125 -12.390625 C 18.71875 -10.691406 17.898438 -9.175781 16.671875 -7.84375 C 15.453125 -6.507812 13.882812 -5.453125 11.96875 -4.671875 C 9.726562 -3.765625 7.59375 -3.453125 5.5625 -3.734375 C 3.53125 -4.015625 1.722656 -4.828125 0.140625 -6.171875 C -1.441406 -7.523438 -2.679688 -9.300781 -3.578125 -11.5 Z M -3.578125 -11.5 "/></g></g></g><g fill="#000000" fill-opacity="1"><g transform="translate(155.098587, 46.174297)"><g><path d="M 13.21875 -1.828125 C 10.988281 -1.484375 8.863281 -1.6875 6.84375 -2.4375 C 4.832031 -3.195312 3.132812 -4.410156 1.75 -6.078125 C 0.363281 -7.753906 -0.503906 -9.753906 -0.859375 -12.078125 C -1.222656 -14.390625 -1.003906 -16.554688 -0.203125 -18.578125 C 0.597656 -20.597656 1.84375 -22.269531 3.53125 -23.59375 C 5.226562 -24.914062 7.191406 -25.75 9.421875 -26.09375 C 11.648438 -26.445312 13.769531 -26.25 15.78125 -25.5 C 17.789062 -24.757812 19.476562 -23.550781 20.84375 -21.875 C 22.21875 -20.195312 23.085938 -18.203125 23.453125 -15.890625 C 23.804688 -13.566406 23.585938 -11.394531 22.796875 -9.375 C 22.015625 -7.363281 20.773438 -5.6875 19.078125 -4.34375 C 17.378906 -3.007812 15.425781 -2.171875 13.21875 -1.828125 Z M 12.140625 -8.75 C 13.609375 -8.976562 14.671875 -9.625 15.328125 -10.6875 C 15.984375 -11.757812 16.1875 -13.097656 15.9375 -14.703125 C 15.675781 -16.328125 15.070312 -17.550781 14.125 -18.375 C 13.175781 -19.195312 11.96875 -19.492188 10.5 -19.265625 C 9 -19.035156 7.921875 -18.382812 7.265625 -17.3125 C 6.617188 -16.238281 6.425781 -14.890625 6.6875 -13.265625 C 6.9375 -11.660156 7.53125 -10.445312 8.46875 -9.625 C 9.414062 -8.8125 10.640625 -8.519531 12.140625 -8.75 Z M 12.140625 -8.75 "/></g></g></g><g fill="#000000" fill-opacity="1"><g transform="translate(189.03418, 41.774316)"><g><path d="M 24.5625 1.90625 L 17.09375 1.328125 L 10.09375 -11.28125 L 9.15625 0.71875 L 1.6875 0.125 L 3.546875 -23.71875 L 11.015625 -23.125 L 18 -10.328125 L 18.953125 -22.515625 L 26.421875 -21.9375 Z M 24.5625 1.90625 "/></g></g></g><g fill="#000000" fill-opacity="1"><g transform="translate(222.779157, 45.281803)"><g><path d="M 23.46875 7.5 L 16.328125 5.21875 L 12.40625 -8.65625 L 8.75 2.796875 L 1.609375 0.515625 L 8.890625 -22.265625 L 16.03125 -19.984375 L 19.890625 -5.90625 L 23.609375 -17.5625 L 30.75 -15.28125 Z M 23.46875 7.5 "/></g></g></g><g fill="#000000" fill-opacity="1"><g transform="translate(254.910089, 56.819476)"><g><path d="M 16.859375 -11.0625 L 15.40625 -8.484375 L 21.875 -4.8125 L 19.078125 0.078125 L 12.609375 -3.59375 L 10.9375 -0.65625 L 18.28125 3.515625 L 15.328125 8.71875 L 1.46875 0.828125 L 13.296875 -19.96875 L 27.15625 -12.078125 L 24.203125 -6.890625 Z M 16.859375 -11.0625 "/></g></g></g><g fill="#000000" fill-opacity="1"><g transform="translate(277.871408, 70.427864)"><g><path d="M 8.703125 -8.328125 C 10.265625 -10.097656 12.015625 -11.359375 13.953125 -12.109375 C 15.898438 -12.867188 17.878906 -13.046875 19.890625 -12.640625 C 21.898438 -12.234375 23.8125 -11.226562 25.625 -9.625 C 27.175781 -8.257812 28.304688 -6.742188 29.015625 -5.078125 C 29.722656 -3.410156 29.988281 -1.710938 29.8125 0.015625 C 29.644531 1.753906 29.066406 3.453125 28.078125 5.109375 L 22.15625 -0.109375 C 22.394531 -0.953125 22.40625 -1.753906 22.1875 -2.515625 C 21.976562 -3.285156 21.554688 -3.953125 20.921875 -4.515625 C 19.972656 -5.347656 18.910156 -5.648438 17.734375 -5.421875 C 16.566406 -5.203125 15.457031 -4.492188 14.40625 -3.296875 C 13.34375 -2.097656 12.769531 -0.90625 12.6875 0.28125 C 12.613281 1.476562 13.050781 2.492188 14 3.328125 C 14.632812 3.890625 15.347656 4.222656 16.140625 4.328125 C 16.929688 4.441406 17.726562 4.328125 18.53125 3.984375 L 24.453125 9.203125 C 22.941406 10.398438 21.332031 11.191406 19.625 11.578125 C 17.914062 11.972656 16.191406 11.921875 14.453125 11.421875 C 12.722656 10.921875 11.082031 9.988281 9.53125 8.625 C 7.71875 7.019531 6.484375 5.242188 5.828125 3.296875 C 5.171875 1.359375 5.09375 -0.617188 5.59375 -2.640625 C 6.101562 -4.660156 7.140625 -6.554688 8.703125 -8.328125 Z M 8.703125 -8.328125 "/></g></g></g><g fill="#000000" fill-opacity="1"><g transform="translate(302.080877, 93.195943)"><g><path d="M 31.40625 2.25 L 26.625 5.78125 L 22.84375 0.671875 L 8.390625 11.359375 L 3.9375 5.328125 L 18.390625 -5.359375 L 14.65625 -10.40625 L 19.4375 -13.9375 Z M 31.40625 2.25 "/></g></g></g><g clip-path="url(#a4c4a69e36)"><g clip-path="url(#8469f20aa3)"><g clip-path="url(#c630716acb)"><g clip-path="url(#eb0f237013)"><path fill="#000000" d="M 288.40625 136.453125 C 288.398438 134.109375 287.566406 131.769531 286.0625 129.660156 C 284.355469 127.269531 282.511719 125.714844 280.378906 124.945312 C 278.25 124.175781 275.832031 124.1875 272.988281 124.941406 C 272.164062 125.15625 271.347656 125.40625 270.53125 125.664062 C 269.722656 125.921875 268.910156 126.1875 268.097656 126.449219 C 261.285156 128.617188 254.867188 131.554688 248.695312 134.953125 C 242.523438 138.347656 236.601562 142.203125 230.789062 146.203125 C 226.375 149.238281 221.882812 151.214844 217.222656 152.070312 C 212.566406 152.925781 207.738281 152.660156 202.65625 151.214844 C 194.832031 148.988281 187.023438 146.707031 179.210938 144.449219 C 171.398438 142.1875 163.578125 139.945312 155.734375 137.800781 C 151.566406 136.664062 147.371094 135.636719 143.152344 134.683594 C 138.933594 133.730469 134.699219 132.855469 130.460938 132.019531 C 129.082031 131.746094 127.488281 131.496094 126.046875 131.71875 C 124.605469 131.945312 123.3125 132.652344 122.527344 134.292969 C 121.730469 135.96875 122.027344 137.359375 122.796875 138.5625 C 123.570312 139.769531 124.816406 140.789062 125.917969 141.730469 C 128.296875 143.757812 130.699219 145.75 133.128906 147.714844 C 135.554688 149.679688 138.011719 151.609375 140.492188 153.507812 C 144.957031 156.925781 149.480469 160.269531 153.992188 163.632812 C 158.503906 166.996094 163 170.375 167.410156 173.863281 C 170.570312 176.363281 172.070312 178.824219 171.964844 181.257812 C 171.855469 183.6875 170.136719 186.09375 166.863281 188.480469 C 165.253906 189.652344 163.59375 190.753906 161.929688 191.851562 C 160.265625 192.953125 158.601562 194.050781 156.992188 195.222656 C 156.816406 195.347656 156.414062 195.746094 156.347656 196.3125 C 156.269531 196.988281 156.707031 197.753906 157.339844 198.003906 C 157.835938 198.199219 158.355469 198.066406 158.53125 197.953125 C 160.640625 196.605469 162.753906 195.257812 164.832031 193.859375 C 166.914062 192.464844 168.953125 191.023438 170.917969 189.480469 C 171.71875 188.855469 172.421875 188.027344 173.023438 187.113281 C 173.621094 186.199219 174.113281 185.199219 174.492188 184.226562 C 175.589844 181.394531 175.410156 178.957031 174.425781 176.828125 C 173.445312 174.695312 171.664062 172.867188 169.5625 171.257812 C 164.738281 167.558594 159.859375 163.929688 154.980469 160.296875 C 150.105469 156.667969 145.226562 153.039062 140.40625 149.332031 C 137.816406 147.34375 135.300781 145.261719 132.800781 143.15625 C 130.300781 141.050781 127.824219 138.917969 125.308594 136.828125 C 125.523438 136.328125 125.734375 135.824219 125.945312 135.320312 C 126.945312 135.355469 127.96875 135.304688 128.972656 135.300781 C 129.980469 135.300781 130.976562 135.347656 131.929688 135.578125 C 136.851562 136.761719 141.769531 137.964844 146.679688 139.203125 C 151.585938 140.441406 156.488281 141.707031 161.378906 143.015625 C 168.90625 145.027344 176.410156 147.132812 183.917969 149.207031 C 191.429688 151.285156 198.941406 153.335938 206.496094 155.242188 C 210.449219 156.242188 214.347656 156.425781 218.125 155.769531 C 221.898438 155.113281 225.550781 153.617188 229.011719 151.242188 C 230.28125 150.375 231.578125 149.554688 232.886719 148.746094 C 234.195312 147.9375 235.511719 147.140625 236.816406 146.320312 C 242.460938 142.761719 248.152344 139.292969 254.054688 136.25 C 259.953125 133.210938 266.0625 130.59375 272.542969 128.734375 C 275.136719 127.992188 277.1875 127.855469 278.902344 128.386719 C 280.617188 128.921875 281.996094 130.121094 283.25 132.050781 C 284.339844 133.730469 284.789062 135.542969 284.539062 137.390625 C 284.289062 139.242188 283.34375 141.121094 281.644531 142.941406 C 280.488281 144.179688 279.25 145.355469 277.957031 146.472656 C 276.664062 147.589844 275.320312 148.652344 273.953125 149.660156 C 267.667969 154.28125 261.351562 158.859375 255.039062 163.441406 C 248.722656 168.019531 242.40625 172.601562 236.125 177.226562 C 232.367188 179.996094 229.714844 183.355469 227.9375 187.152344 C 226.160156 190.949219 225.257812 195.179688 224.984375 199.695312 C 224.425781 208.9375 223.933594 218.1875 223.410156 227.433594 C 222.890625 236.679688 222.351562 245.921875 221.707031 255.160156 C 221.539062 257.582031 221.132812 259.996094 220.613281 262.390625 C 220.09375 264.789062 219.457031 267.167969 218.832031 269.527344 C 218.652344 270.203125 218.15625 270.949219 217.542969 271.5625 C 216.929688 272.171875 216.199219 272.652344 215.546875 272.789062 C 215.105469 272.882812 214.480469 272.484375 213.867188 271.910156 C 213.253906 271.335938 212.652344 270.585938 212.269531 269.96875 C 211.765625 269.164062 211.3125 268.292969 210.941406 267.390625 C 210.570312 266.484375 210.285156 265.550781 210.105469 264.621094 C 209 258.824219 207.964844 253.015625 206.921875 247.207031 C 205.875 241.402344 204.824219 235.597656 203.703125 229.804688 C 203.152344 226.96875 202.601562 224.117188 201.945312 221.292969 C 201.289062 218.472656 200.527344 215.683594 199.550781 212.980469 C 198.519531 210.113281 196.746094 208.21875 194.515625 207.304688 C 192.285156 206.390625 189.59375 206.460938 186.71875 207.511719 C 185.496094 207.960938 184.316406 208.523438 183.144531 209.109375 C 181.972656 209.695312 180.808594 210.308594 179.621094 210.855469 C 174.84375 213.074219 170.023438 214.414062 165.121094 214.792969 C 160.21875 215.175781 155.234375 214.605469 150.121094 213.003906 C 144.476562 211.238281 138.789062 209.59375 133.03125 208.269531 C 127.273438 206.945312 121.441406 205.9375 115.507812 205.441406 C 114.03125 205.320312 112.4375 205.101562 111.011719 205.296875 C 109.582031 205.492188 108.324219 206.101562 107.523438 207.636719 C 106.683594 209.234375 106.957031 210.625 107.6875 211.878906 C 108.417969 213.132812 109.601562 214.253906 110.578125 215.320312 C 112.839844 217.796875 115.136719 220.25 117.445312 222.683594 C 119.757812 225.117188 122.089844 227.535156 124.429688 229.945312 C 127.140625 232.734375 129.238281 235.757812 130.589844 239.070312 C 131.941406 242.382812 132.542969 245.984375 132.257812 249.933594 C 131.917969 254.667969 133.5625 257.625 136.136719 259.300781 C 138.714844 260.972656 142.21875 261.363281 145.605469 260.96875 C 147.363281 260.761719 148.714844 260.164062 149.617188 259.179688 C 150.523438 258.195312 150.980469 256.8125 150.960938 255.042969 C 150.929688 252.71875 150.824219 250.398438 150.675781 248.074219 C 150.527344 245.753906 150.332031 243.433594 150.125 241.117188 C 150.007812 239.824219 149.859375 238.519531 149.640625 237.230469 C 149.421875 235.941406 149.136719 234.671875 148.75 233.433594 C 148.679688 233.203125 148.523438 233.003906 148.308594 232.820312 C 148.277344 232.789062 147.964844 232.476562 147.566406 232.3125 C 146.824219 232.007812 145.710938 232.175781 145.109375 232.910156 C 144.679688 233.433594 144.675781 234.050781 144.652344 234.46875 C 144.621094 235.007812 144.78125 235.546875 144.964844 236.09375 C 145.148438 236.640625 145.363281 237.191406 145.441406 237.746094 C 145.824219 240.328125 146.257812 242.902344 146.640625 245.480469 C 147.023438 248.058594 147.355469 250.644531 147.542969 253.238281 C 147.683594 255.152344 147.386719 256.351562 146.578125 257.027344 C 145.769531 257.699219 144.441406 257.847656 142.519531 257.652344 C 139.886719 257.386719 138.128906 256.878906 137.0625 255.773438 C 135.996094 254.671875 135.625 252.976562 135.761719 250.328125 C 136 245.671875 135.273438 241.460938 133.683594 237.605469 C 132.097656 233.746094 129.648438 230.246094 126.453125 227.007812 C 124.535156 225.066406 122.632812 223.105469 120.738281 221.136719 C 118.847656 219.164062 116.972656 217.179688 115.105469 215.1875 C 114.3125 214.34375 113.566406 213.449219 112.78125 212.488281 C 111.992188 211.523438 111.167969 210.484375 110.21875 209.339844 C 110.996094 209.269531 111.570312 209.199219 112.046875 209.148438 C 112.523438 209.097656 112.898438 209.070312 113.269531 209.078125 C 119.320312 209.226562 125.242188 210.117188 131.0625 211.429688 C 136.886719 212.742188 142.613281 214.484375 148.273438 216.328125 C 154.390625 218.320312 160.257812 218.945312 165.988281 218.367188 C 171.71875 217.789062 177.3125 216.003906 182.867188 213.171875 C 183.726562 212.734375 184.589844 212.289062 185.464844 211.875 C 186.339844 211.460938 187.226562 211.082031 188.136719 210.773438 C 190.140625 210.089844 191.832031 210.023438 193.214844 210.613281 C 194.597656 211.199219 195.664062 212.445312 196.421875 214.402344 C 197.074219 216.085938 197.660156 217.8125 198.160156 219.566406 C 198.65625 221.320312 199.070312 223.09375 199.363281 224.875 C 200.195312 229.859375 200.867188 234.878906 201.578125 239.886719 C 202.09375 243.535156 202.722656 247.308594 204.003906 254.847656 C 204.003906 254.847656 204.574219 258.191406 205.730469 262.941406 C 206.582031 266.445312 207.183594 268.332031 208.300781 270.421875 C 209.023438 271.777344 210.144531 273.546875 211.957031 274.957031 C 212.921875 275.703125 214.007812 276.253906 215.257812 276.507812 C 216.71875 276.804688 218.003906 276.351562 219.042969 275.496094 C 220.085938 274.636719 220.890625 273.367188 221.40625 272.035156 C 221.980469 270.558594 222.480469 269.046875 222.910156 267.511719 C 223.339844 265.976562 223.703125 264.425781 223.996094 262.867188 C 225.742188 253.488281 226.589844 244.035156 227.066406 234.558594 C 227.539062 225.082031 227.644531 215.578125 227.90625 206.105469 C 228.085938 199.664062 229.15625 193.953125 231.546875 188.941406 C 233.9375 183.933594 237.644531 179.617188 243.101562 175.972656 C 248.449219 172.398438 253.71875 168.703125 258.945312 164.949219 C 264.171875 161.1875 269.351562 157.367188 274.515625 153.527344 C 276.554688 152.015625 278.558594 150.410156 280.464844 148.699219 C 282.371094 146.992188 284.175781 145.179688 285.808594 143.253906 C 287.601562 141.140625 288.421875 138.792969 288.410156 136.449219 Z M 288.40625 136.453125 " fill-opacity="1" fill-rule="nonzero"/></g></g></g></g><g clip-path="url(#cc3e069653)"><g clip-path="url(#674db82d12)"><g clip-path="url(#8655b828fa)"><path fill="#000000" d="M 160.136719 344.242188 C 162.601562 344.777344 165.074219 345.253906 167.5625 345.667969 C 170.046875 346.082031 172.539062 346.433594 175.042969 346.730469 C 177.546875 347.023438 180.054688 347.253906 182.566406 347.425781 C 185.082031 347.597656 187.597656 347.710938 190.117188 347.757812 C 192.636719 347.808594 195.152344 347.796875 197.671875 347.726562 C 200.191406 347.652344 202.703125 347.519531 205.214844 347.324219 C 207.726562 347.132812 210.234375 346.875 212.730469 346.5625 C 215.230469 346.246094 217.722656 345.867188 220.203125 345.433594 C 222.683594 344.996094 225.152344 344.5 227.605469 343.941406 C 230.0625 343.386719 232.503906 342.769531 234.933594 342.097656 C 237.359375 341.421875 239.765625 340.6875 242.15625 339.894531 C 244.546875 339.105469 246.917969 338.253906 249.269531 337.347656 C 251.617188 336.441406 253.945312 335.480469 256.246094 334.460938 C 258.550781 333.441406 260.824219 332.363281 263.074219 331.234375 C 265.328125 330.105469 267.546875 328.921875 269.742188 327.683594 C 271.933594 326.445312 274.097656 325.15625 276.226562 323.8125 C 278.355469 322.46875 280.453125 321.074219 282.515625 319.628906 C 284.578125 318.1875 286.605469 316.691406 288.59375 315.148438 C 290.585938 313.605469 292.535156 312.015625 294.449219 310.378906 C 296.363281 308.742188 298.234375 307.058594 300.066406 305.328125 C 301.898438 303.601562 303.6875 301.828125 305.433594 300.011719 C 307.175781 298.195312 308.878906 296.339844 310.535156 294.441406 C 312.1875 292.542969 313.796875 290.605469 315.359375 288.628906 C 316.921875 286.65625 318.433594 284.640625 319.894531 282.589844 C 321.359375 280.542969 322.773438 278.457031 324.136719 276.339844 C 325.5 274.222656 326.808594 272.070312 328.070312 269.890625 C 329.328125 267.707031 330.53125 265.496094 331.683594 263.253906 C 332.835938 261.015625 333.929688 258.746094 334.972656 256.453125 C 336.015625 254.160156 337 251.839844 337.929688 249.5 C 338.859375 247.15625 339.730469 244.792969 340.542969 242.410156 C 341.359375 240.023438 342.113281 237.621094 342.8125 235.199219 C 343.511719 232.777344 344.148438 230.34375 344.730469 227.890625 C 354.285156 187.917969 348.0625 146.5625 327.210938 111.457031 C 327.109375 111.304688 326.980469 111.175781 326.824219 111.070312 C 326.671875 110.964844 326.503906 110.890625 326.324219 110.851562 C 326.140625 110.8125 325.957031 110.804688 325.773438 110.835938 C 325.59375 110.863281 325.421875 110.925781 325.261719 111.023438 C 325.101562 111.117188 324.964844 111.238281 324.851562 111.386719 C 324.738281 111.53125 324.65625 111.695312 324.605469 111.875 C 324.554688 112.050781 324.539062 112.234375 324.554688 112.417969 C 324.574219 112.605469 324.625 112.777344 324.710938 112.945312 C 366.851562 183.90625 344.402344 277.394531 274.671875 321.347656 C 204.945312 365.300781 110.914062 345.230469 65.070312 276.605469 C 64.957031 276.457031 64.820312 276.335938 64.660156 276.238281 C 64.503906 276.140625 64.332031 276.078125 64.148438 276.046875 C 63.964844 276.015625 63.785156 276.019531 63.601562 276.058594 C 63.421875 276.097656 63.253906 276.167969 63.097656 276.269531 C 62.941406 276.375 62.8125 276.5 62.707031 276.65625 C 62.601562 276.808594 62.527344 276.972656 62.488281 277.15625 C 62.445312 277.335938 62.4375 277.519531 62.464844 277.703125 C 62.492188 277.886719 62.554688 278.058594 62.648438 278.21875 C 85.332031 312.175781 119.953125 335.621094 160.136719 344.242188 Z M 160.136719 344.242188 " fill-opacity="1" fill-rule="evenodd"/></g></g></g></svg>