<svg xmlns="http://www.w3.org/2000/svg" xmlns:xlink="http://www.w3.org/1999/xlink" width="500" zoomAndPan="magnify" viewBox="0 0 375 374.999991" height="500" preserveAspectRatio="xMidYMid meet" version="1.0"><defs><g/><clipPath id="cde499358d"><path d="M 107 124 L 289 124 L 289 277 L 107 277 Z M 107 124 " clip-rule="nonzero"/></clipPath><clipPath id="83465af815"><path d="M 131.339844 91.976562 L 291.050781 126.980469 L 256.046875 286.6875 L 96.339844 251.6875 Z M 131.339844 91.976562 " clip-rule="nonzero"/></clipPath><clipPath id="087a695bcf"><path d="M 131.339844 91.976562 L 291.050781 126.980469 L 256.046875 286.6875 L 96.339844 251.6875 Z M 131.339844 91.976562 " clip-rule="nonzero"/></clipPath><clipPath id="5e119ff9e2"><path d="M 131.339844 91.976562 L 291.050781 126.980469 L 256.046875 286.6875 L 96.339844 251.6875 Z M 131.339844 91.976562 " clip-rule="nonzero"/></clipPath><clipPath id="36e67c8b71"><path d="M 62 110 L 350 110 L 350 348 L 62 348 Z M 62 110 " clip-rule="nonzero"/></clipPath><clipPath id="d0cb15de6b"><path d="M 416.746094 252.785156 L 151.539062 419.957031 L 61.554688 277.199219 L 326.765625 110.027344 Z M 416.746094 252.785156 " clip-rule="nonzero"/></clipPath><clipPath id="0e07a9beec"><path d="M 416.746094 252.785156 L 151.539062 419.957031 L 61.554688 277.199219 L 326.765625 110.027344 Z M 416.746094 252.785156 " clip-rule="nonzero"/></clipPath></defs><g fill="#3d3b3a" fill-opacity="1"><g transform="translate(55.866921, 246.551103)"><g><path d="M -24.125 -9.484375 L -19.359375 -11.984375 L -18.71875 -10.671875 L -21.75 -8.09375 C -21.738281 -7.90625 -21.695312 -7.703125 -21.625 -7.484375 C -21.5625 -7.273438 -21.5 -7.085938 -21.4375 -6.921875 L -21.03125 -5.796875 C -20.957031 -5.597656 -20.859375 -5.320312 -20.734375 -4.96875 C -20.609375 -4.613281 -20.484375 -4.289062 -20.359375 -4 C -20.191406 -4.0625 -19.796875 -4.195312 -19.171875 -4.40625 C -18.554688 -4.625 -17.84375 -4.875 -17.03125 -5.15625 C -16.226562 -5.445312 -15.453125 -5.726562 -14.703125 -6 L -10.515625 -7.515625 C -9.210938 -7.984375 -8.085938 -8.398438 -7.140625 -8.765625 C -6.191406 -9.128906 -5.5625 -9.367188 -5.25 -9.484375 L -5.796875 -12.265625 L -4.53125 -12.609375 L -1.6875 -4.6875 L -2.90625 -4.1875 L -4.234375 -6.65625 C -4.546875 -6.539062 -5.179688 -6.320312 -6.140625 -6 C -7.109375 -5.675781 -8.242188 -5.28125 -9.546875 -4.8125 L -13.734375 -3.296875 C -14.484375 -3.023438 -15.257812 -2.742188 -16.0625 -2.453125 C -16.875 -2.171875 -17.585938 -1.914062 -18.203125 -1.6875 C -18.816406 -1.46875 -19.203125 -1.316406 -19.359375 -1.234375 C -19.285156 -0.960938 -19.1875 -0.648438 -19.0625 -0.296875 C -18.9375 0.046875 -18.835938 0.320312 -18.765625 0.53125 L -18.3125 1.75 C -18.257812 1.90625 -18.191406 2.082031 -18.109375 2.28125 C -18.023438 2.488281 -17.925781 2.675781 -17.8125 2.84375 L -13.828125 2.84375 L -13.515625 4.296875 L -18.765625 5.421875 C -18.828125 5.179688 -18.898438 4.929688 -18.984375 4.671875 C -19.078125 4.410156 -19.160156 4.144531 -19.234375 3.875 C -19.304688 3.613281 -19.382812 3.359375 -19.46875 3.109375 C -19.5625 2.859375 -19.648438 2.613281 -19.734375 2.375 L -22.9375 -6.515625 C -23.019531 -6.742188 -23.109375 -6.984375 -23.203125 -7.234375 C -23.296875 -7.492188 -23.394531 -7.742188 -23.5 -7.984375 C -23.613281 -8.234375 -23.71875 -8.484375 -23.8125 -8.734375 C -23.914062 -8.992188 -24.019531 -9.242188 -24.125 -9.484375 Z M -24.125 -9.484375 "/></g></g></g><g fill="#3d3b3a" fill-opacity="1"><g transform="translate(47.515986, 221.136792)"><g><path d="M -0.28125 -1.703125 L -1.5 -1.4375 L -2.328125 -3.328125 C -2.472656 -3.296875 -2.703125 -3.265625 -3.015625 -3.234375 C -3.335938 -3.203125 -3.710938 -3.148438 -4.140625 -3.078125 C -4.566406 -3.003906 -5.039062 -2.929688 -5.5625 -2.859375 C -6.082031 -2.785156 -6.585938 -2.707031 -7.078125 -2.625 L -13.203125 -1.625 C -14.210938 -1.457031 -15.054688 -1.3125 -15.734375 -1.1875 C -16.410156 -1.0625 -16.9375 -0.953125 -17.3125 -0.859375 C -17.695312 -0.773438 -17.925781 -0.71875 -18 -0.6875 L -18.140625 1.40625 L -19.390625 1.5 L -20.5625 -5.609375 C -20.894531 -7.660156 -20.753906 -9.285156 -20.140625 -10.484375 C -19.523438 -11.691406 -18.445312 -12.421875 -16.90625 -12.671875 C -15.832031 -12.847656 -14.832031 -12.710938 -13.90625 -12.265625 C -12.976562 -11.816406 -12.1875 -11.101562 -11.53125 -10.125 C -10.882812 -9.144531 -10.445312 -7.984375 -10.21875 -6.640625 L -9.875 -4.5625 L -11.34375 -4.328125 L -11.65625 -6.171875 C -11.875 -7.515625 -12.378906 -8.507812 -13.171875 -9.15625 C -13.972656 -9.800781 -14.972656 -10.023438 -16.171875 -9.828125 C -17.316406 -9.640625 -18.132812 -9.164062 -18.625 -8.40625 C -19.113281 -7.65625 -19.257812 -6.675781 -19.0625 -5.46875 L -18.75 -3.5625 C -18.707031 -3.550781 -18.613281 -3.550781 -18.46875 -3.5625 C -18.332031 -3.570312 -18.113281 -3.597656 -17.8125 -3.640625 C -17.507812 -3.691406 -17.0625 -3.765625 -16.46875 -3.859375 C -15.882812 -3.960938 -15.109375 -4.09375 -14.140625 -4.25 L -7.515625 -5.34375 C -6.597656 -5.488281 -5.820312 -5.617188 -5.1875 -5.734375 C -4.5625 -5.847656 -4.0625 -5.953125 -3.6875 -6.046875 C -3.3125 -6.148438 -3.019531 -6.234375 -2.8125 -6.296875 L -2.625 -8.296875 L -1.375 -8.40625 Z M -2.484375 -17.171875 C -2.328125 -16.222656 -2.367188 -15.347656 -2.609375 -14.546875 C -2.847656 -13.742188 -3.332031 -12.929688 -4.0625 -12.109375 C -4.789062 -11.285156 -5.796875 -10.347656 -7.078125 -9.296875 L -10.765625 -6.4375 L -11.703125 -8.78125 L -7.125 -13.140625 C -6.320312 -13.890625 -5.695312 -14.550781 -5.25 -15.125 C -4.800781 -15.707031 -4.484375 -16.257812 -4.296875 -16.78125 C -4.117188 -17.300781 -4.019531 -17.851562 -4 -18.4375 L -2.84375 -18.59375 C -2.769531 -18.382812 -2.703125 -18.15625 -2.640625 -17.90625 C -2.578125 -17.65625 -2.523438 -17.410156 -2.484375 -17.171875 Z M -2.484375 -17.171875 "/></g></g></g><g fill="#3d3b3a" fill-opacity="1"><g transform="translate(43.870265, 194.32914)"><g><path d="M 0 -0.09375 L -1.25 -0.0625 L -1.6875 -1.6875 L -18.625 -8.875 L -19.734375 -10.796875 L -1.328125 -17.59375 L -0.828125 -19.234375 L 0.421875 -19.109375 L 0.28125 -12.4375 L -0.96875 -12.40625 L -1.40625 -14.421875 L -6.3125 -12.578125 L -7.359375 -12.25 L -16.40625 -8.859375 L -16.828125 -9.609375 L -7.5 -5.984375 L -6.515625 -5.59375 L -1.640625 -3.734375 L -1.125 -5.734375 L 0.125 -5.640625 Z M -6 -4.859375 L -7.75 -4.890625 C -7.71875 -5.304688 -7.679688 -5.878906 -7.640625 -6.609375 C -7.597656 -7.335938 -7.566406 -8.226562 -7.546875 -9.28125 C -7.523438 -10.3125 -7.519531 -11.195312 -7.53125 -11.9375 C -7.539062 -12.675781 -7.550781 -13.242188 -7.5625 -13.640625 L -5.8125 -13.609375 C -5.84375 -12.859375 -5.875 -12.113281 -5.90625 -11.375 C -5.9375 -10.632812 -5.957031 -9.925781 -5.96875 -9.25 C -5.976562 -8.59375 -5.988281 -7.90625 -6 -7.1875 C -6.007812 -6.46875 -6.007812 -5.691406 -6 -4.859375 Z M -6 -4.859375 "/></g></g></g><g fill="#3d3b3a" fill-opacity="1"><g transform="translate(45.254563, 166.833109)"><g><path d="M 1.9375 -8.703125 L -16.90625 -5.359375 L -17.734375 -3.796875 L -18.921875 -4.140625 L -17.5 -10.828125 L -16.28125 -10.640625 L -16.21875 -8.578125 L -0.96875 -11.125 L -1.109375 -10.484375 L -14.078125 -18.6875 L -15.03125 -16.515625 L -16.21875 -16.875 L -14.96875 -22.796875 L -13.734375 -22.625 L -13.609375 -20.90625 L 2.234375 -10.0625 Z M 1.9375 -8.703125 "/></g></g></g><g fill="#3d3b3a" fill-opacity="1"><g transform="translate(51.792308, 139.9676)"><g><path d="M 6.3125 -14.765625 C 6 -14.179688 5.734375 -13.664062 5.515625 -13.21875 C 5.304688 -12.78125 5.117188 -12.359375 4.953125 -11.953125 L 0.625 -1.5 L -0.578125 -1.890625 L -0.234375 -3.953125 C -0.316406 -4.003906 -0.535156 -4.113281 -0.890625 -4.28125 C -1.242188 -4.457031 -1.734375 -4.679688 -2.359375 -4.953125 C -2.984375 -5.234375 -3.742188 -5.5625 -4.640625 -5.9375 L -10.375 -8.3125 C -11.289062 -8.695312 -12.070312 -9.015625 -12.71875 -9.265625 C -13.363281 -9.515625 -13.875 -9.703125 -14.25 -9.828125 C -14.625 -9.960938 -14.859375 -10.039062 -14.953125 -10.0625 L -16.15625 -8.359375 L -17.265625 -8.921875 L -13.203125 -18.703125 C -13.085938 -18.984375 -12.960938 -19.285156 -12.828125 -19.609375 C -12.691406 -19.941406 -12.566406 -20.289062 -12.453125 -20.65625 C -12.335938 -21.03125 -12.207031 -21.410156 -12.0625 -21.796875 L -7.796875 -20.75 L -8.15625 -19.28125 L -11.140625 -19.34375 C -11.234375 -19.1875 -11.328125 -19.007812 -11.421875 -18.8125 C -11.523438 -18.625 -11.625 -18.421875 -11.71875 -18.203125 L -13.15625 -14.75 C -13.3125 -14.363281 -13.441406 -14.019531 -13.546875 -13.71875 C -13.648438 -13.414062 -13.75 -13.113281 -13.84375 -12.8125 C -13.757812 -12.78125 -13.53125 -12.679688 -13.15625 -12.515625 C -12.789062 -12.347656 -12.363281 -12.15625 -11.875 -11.9375 C -11.382812 -11.726562 -10.898438 -11.523438 -10.421875 -11.328125 L -2.171875 -7.90625 C -1.773438 -7.738281 -1.363281 -7.570312 -0.9375 -7.40625 C -0.519531 -7.238281 -0.15625 -7.09375 0.15625 -6.96875 C 0.476562 -6.851562 0.710938 -6.769531 0.859375 -6.71875 C 1.003906 -7.019531 1.148438 -7.316406 1.296875 -7.609375 C 1.441406 -7.898438 1.59375 -8.238281 1.75 -8.625 L 2.984375 -11.578125 C 3.171875 -12.035156 3.316406 -12.40625 3.421875 -12.6875 C 3.523438 -12.976562 3.601562 -13.207031 3.65625 -13.375 C 3.707031 -13.550781 3.742188 -13.691406 3.765625 -13.796875 L 1.515625 -16.59375 L 2.375 -17.84375 Z M -1.5 -14.03125 L -3.734375 -14.515625 C -3.816406 -14.429688 -3.914062 -14.269531 -4.03125 -14.03125 C -4.144531 -13.800781 -4.273438 -13.515625 -4.421875 -13.171875 L -5.390625 -10.84375 C -5.492188 -10.582031 -5.601562 -10.289062 -5.71875 -9.96875 C -5.84375 -9.644531 -5.960938 -9.316406 -6.078125 -8.984375 L -7.75 -9.671875 C -7.59375 -9.992188 -7.441406 -10.3125 -7.296875 -10.625 C -7.148438 -10.9375 -7.023438 -11.222656 -6.921875 -11.484375 L -5.953125 -13.8125 C -5.804688 -14.15625 -5.6875 -14.445312 -5.59375 -14.6875 C -5.507812 -14.9375 -5.46875 -15.117188 -5.46875 -15.234375 L -7.421875 -16.484375 L -6.890625 -17.796875 L -0.96875 -15.34375 Z M -1.5 -14.03125 "/></g></g></g><g fill="#3d3b3a" fill-opacity="1"><g transform="translate(62.791972, 115.566742)"><g><path d="M 8.453125 -12.875 C 8.242188 -12.65625 8.023438 -12.382812 7.796875 -12.0625 C 7.578125 -11.75 7.363281 -11.4375 7.15625 -11.125 C 6.945312 -10.820312 6.757812 -10.539062 6.59375 -10.28125 L 0.890625 -1.390625 L -0.203125 -2 L 0.484375 -3.953125 C 0.410156 -4.023438 0.222656 -4.175781 -0.078125 -4.40625 C -0.390625 -4.644531 -0.84375 -4.957031 -1.4375 -5.34375 C -2.03125 -5.726562 -2.722656 -6.175781 -3.515625 -6.6875 L -8.734375 -10.03125 C -9.578125 -10.570312 -10.28125 -11.023438 -10.84375 -11.390625 C -11.414062 -11.753906 -11.878906 -12.03125 -12.234375 -12.21875 C -12.585938 -12.414062 -12.8125 -12.523438 -12.90625 -12.546875 L -14.421875 -11.109375 L -15.421875 -11.84375 L -11.234375 -18.375 L -10.078125 -17.734375 L -11.1875 -15.21875 C -11.164062 -15.132812 -11.003906 -14.988281 -10.703125 -14.78125 C -10.410156 -14.570312 -9.976562 -14.269531 -9.40625 -13.875 C -8.832031 -13.476562 -8.097656 -12.992188 -7.203125 -12.421875 L -1.984375 -9.078125 C -1.023438 -8.460938 -0.1875 -7.9375 0.53125 -7.5 C 1.257812 -7.0625 1.734375 -6.785156 1.953125 -6.671875 C 2.160156 -6.898438 2.351562 -7.144531 2.53125 -7.40625 C 2.71875 -7.675781 2.929688 -8 3.171875 -8.375 L 4.5 -10.453125 C 4.78125 -10.878906 5 -11.242188 5.15625 -11.546875 C 5.320312 -11.847656 5.484375 -12.164062 5.640625 -12.5 L 3.859375 -15.671875 L 4.921875 -16.75 Z M 8.453125 -12.875 "/></g></g></g><g fill="#3d3b3a" fill-opacity="1"><g transform="translate(77.423164, 94.52117)"><g/></g></g><g fill="#3d3b3a" fill-opacity="1"><g transform="translate(87.154959, 83.158871)"><g><path d="M 6.46875 -5.125 C 5.238281 -4.09375 4.070312 -3.425781 2.96875 -3.125 C 1.863281 -2.820312 0.867188 -2.800781 -0.015625 -3.0625 C -0.898438 -3.320312 -1.632812 -3.796875 -2.21875 -4.484375 C -2.6875 -5.035156 -3.023438 -5.722656 -3.234375 -6.546875 C -3.453125 -7.378906 -3.46875 -8.382812 -3.28125 -9.5625 C -3.09375 -10.75 -2.601562 -12.160156 -1.8125 -13.796875 C -1.25 -15.128906 -0.878906 -16.285156 -0.703125 -17.265625 C -0.535156 -18.253906 -0.535156 -19.109375 -0.703125 -19.828125 C -0.867188 -20.546875 -1.191406 -21.191406 -1.671875 -21.765625 C -2.296875 -22.503906 -2.9375 -22.910156 -3.59375 -22.984375 C -4.257812 -23.054688 -4.847656 -22.875 -5.359375 -22.4375 C -5.984375 -21.914062 -6.304688 -21.238281 -6.328125 -20.40625 C -6.359375 -19.582031 -5.988281 -18.71875 -5.21875 -17.8125 C -4.757812 -17.269531 -4.253906 -16.800781 -3.703125 -16.40625 C -3.160156 -16.007812 -2.539062 -15.664062 -1.84375 -15.375 C -1.144531 -15.082031 -0.367188 -14.8125 0.484375 -14.5625 C 1.347656 -14.3125 2.316406 -14.046875 3.390625 -13.765625 C 5.203125 -13.328125 6.789062 -13.046875 8.15625 -12.921875 C 9.53125 -12.804688 10.722656 -12.863281 11.734375 -13.09375 C 12.742188 -13.332031 13.601562 -13.75 14.3125 -14.34375 C 14.769531 -14.726562 15.125 -15.132812 15.375 -15.5625 C 15.632812 -16 15.847656 -16.519531 16.015625 -17.125 L 17 -16.890625 C 17.0625 -16.003906 16.898438 -15.160156 16.515625 -14.359375 C 16.140625 -13.566406 15.566406 -12.847656 14.796875 -12.203125 C 13.890625 -11.429688 12.875 -10.890625 11.75 -10.578125 C 10.625 -10.273438 9.335938 -10.171875 7.890625 -10.265625 C 6.453125 -10.367188 4.796875 -10.640625 2.921875 -11.078125 C 1.273438 -11.472656 -0.140625 -11.859375 -1.328125 -12.234375 C -2.523438 -12.609375 -3.5625 -13.054688 -4.4375 -13.578125 C -5.320312 -14.097656 -6.101562 -14.757812 -6.78125 -15.5625 C -7.476562 -16.382812 -7.921875 -17.285156 -8.109375 -18.265625 C -8.304688 -19.253906 -8.253906 -20.210938 -7.953125 -21.140625 C -7.648438 -22.078125 -7.078125 -22.90625 -6.234375 -23.625 C -5.171875 -24.519531 -4.066406 -24.96875 -2.921875 -24.96875 C -1.785156 -24.96875 -0.796875 -24.472656 0.046875 -23.484375 C 0.609375 -22.804688 0.984375 -22.023438 1.171875 -21.140625 C 1.359375 -20.265625 1.3125 -19.191406 1.03125 -17.921875 C 0.75 -16.660156 0.21875 -15.097656 -0.5625 -13.234375 C -1.195312 -11.691406 -1.472656 -10.441406 -1.390625 -9.484375 C -1.304688 -8.535156 -0.953125 -7.691406 -0.328125 -6.953125 C 0.148438 -6.378906 0.734375 -5.992188 1.421875 -5.796875 C 2.117188 -5.609375 2.847656 -5.628906 3.609375 -5.859375 C 4.378906 -6.097656 5.132812 -6.53125 5.875 -7.15625 C 6.78125 -7.925781 7.445312 -8.800781 7.875 -9.78125 C 8.3125 -10.757812 8.472656 -11.9375 8.359375 -13.3125 C 8.253906 -14.695312 7.859375 -16.34375 7.171875 -18.25 L 5.171875 -17.03125 L 4.40625 -18.015625 L 9.65625 -22.5 L 10.515625 -21.59375 L 9 -19.796875 C 9.53125 -17.503906 9.828125 -15.453125 9.890625 -13.640625 C 9.953125 -11.835938 9.707031 -10.234375 9.15625 -8.828125 C 8.613281 -7.429688 7.71875 -6.195312 6.46875 -5.125 Z M 6.46875 -5.125 "/></g></g></g><g fill="#3d3b3a" fill-opacity="1"><g transform="translate(112.481405, 63.475928)"><g/></g></g><g fill="#3d3b3a" fill-opacity="1"><g transform="translate(125.435153, 55.807722)"><g><path d="M 11.3125 -4.40625 C 9.550781 -3.664062 7.800781 -3.332031 6.0625 -3.40625 C 4.332031 -3.476562 2.75 -4.003906 1.3125 -4.984375 C -0.125 -5.972656 -1.257812 -7.460938 -2.09375 -9.453125 C -2.632812 -10.734375 -2.914062 -12.03125 -2.9375 -13.34375 C -2.957031 -14.65625 -2.71875 -15.921875 -2.21875 -17.140625 C -1.71875 -18.367188 -0.945312 -19.488281 0.09375 -20.5 C 1.132812 -21.507812 2.445312 -22.34375 4.03125 -23 C 4.851562 -23.351562 5.765625 -23.640625 6.765625 -23.859375 C 7.773438 -24.085938 8.707031 -24.203125 9.5625 -24.203125 L 11.515625 -20.125 L 10.203125 -19.4375 L 8.0625 -21.921875 C 7.570312 -22.035156 6.984375 -22.023438 6.296875 -21.890625 C 5.617188 -21.765625 4.984375 -21.578125 4.390625 -21.328125 C 2.867188 -20.691406 1.765625 -19.84375 1.078125 -18.78125 C 0.390625 -17.726562 0.046875 -16.554688 0.046875 -15.265625 C 0.046875 -13.972656 0.320312 -12.664062 0.875 -11.34375 C 1.59375 -9.625 2.5 -8.289062 3.59375 -7.34375 C 4.695312 -6.394531 5.890625 -5.828125 7.171875 -5.640625 C 8.453125 -5.460938 9.707031 -5.632812 10.9375 -6.15625 C 11.570312 -6.414062 12.128906 -6.726562 12.609375 -7.09375 C 13.097656 -7.457031 13.523438 -7.882812 13.890625 -8.375 L 14.03125 -11.8125 L 15.5 -12.234375 L 16.234375 -8.03125 C 15.671875 -7.394531 14.972656 -6.738281 14.140625 -6.0625 C 13.304688 -5.394531 12.363281 -4.84375 11.3125 -4.40625 Z M 11.3125 -4.40625 "/></g></g></g><g fill="#3d3b3a" fill-opacity="1"><g transform="translate(151.665176, 45.591491)"><g><path d="M 11.359375 -1.9375 C 9.472656 -1.570312 7.71875 -1.65625 6.09375 -2.1875 C 4.476562 -2.71875 3.113281 -3.632812 2 -4.9375 C 0.894531 -6.25 0.15625 -7.851562 -0.21875 -9.75 C -0.59375 -11.65625 -0.515625 -13.429688 0.015625 -15.078125 C 0.546875 -16.734375 1.46875 -18.132812 2.78125 -19.28125 C 4.09375 -20.425781 5.675781 -21.179688 7.53125 -21.546875 C 9.34375 -21.910156 11.019531 -21.816406 12.5625 -21.265625 C 14.101562 -20.710938 15.410156 -19.789062 16.484375 -18.5 C 17.554688 -17.207031 18.285156 -15.613281 18.671875 -13.71875 C 18.953125 -12.28125 18.960938 -10.90625 18.703125 -9.59375 C 18.453125 -8.289062 17.984375 -7.109375 17.296875 -6.046875 C 16.609375 -4.984375 15.757812 -4.09375 14.75 -3.375 C 13.75 -2.664062 12.617188 -2.1875 11.359375 -1.9375 Z M 11.3125 -3.75 C 12.488281 -3.988281 13.441406 -4.492188 14.171875 -5.265625 C 14.910156 -6.035156 15.398438 -7.023438 15.640625 -8.234375 C 15.878906 -9.441406 15.847656 -10.800781 15.546875 -12.3125 C 15.203125 -14.0625 14.628906 -15.539062 13.828125 -16.75 C 13.023438 -17.957031 12.082031 -18.835938 11 -19.390625 C 9.925781 -19.953125 8.75 -20.101562 7.46875 -19.84375 C 5.644531 -19.488281 4.332031 -18.519531 3.53125 -16.9375 C 2.726562 -15.351562 2.554688 -13.382812 3.015625 -11.03125 C 3.359375 -9.351562 3.9375 -7.925781 4.75 -6.75 C 5.5625 -5.570312 6.539062 -4.710938 7.6875 -4.171875 C 8.832031 -3.640625 10.039062 -3.5 11.3125 -3.75 Z M 11.3125 -3.75 "/></g></g></g><g fill="#3d3b3a" fill-opacity="1"><g transform="translate(182.009965, 40.449256)"><g><path d="M 16.71875 -4.53125 L 16.8125 -11.921875 C 16.820312 -13.222656 16.828125 -14.265625 16.828125 -15.046875 C 16.828125 -15.828125 16.8125 -16.410156 16.78125 -16.796875 C 16.75 -17.179688 16.722656 -17.40625 16.703125 -17.46875 L 14.46875 -17.96875 L 14.578125 -19.21875 L 20.84375 -19.140625 L 20.9375 -17.890625 L 18.890625 -17.453125 C 18.890625 -17.390625 18.867188 -17.164062 18.828125 -16.78125 C 18.785156 -16.394531 18.75 -15.804688 18.71875 -15.015625 C 18.6875 -14.222656 18.664062 -13.1875 18.65625 -11.90625 L 18.5625 -4.046875 C 18.550781 -3.347656 18.539062 -2.632812 18.53125 -1.90625 C 18.53125 -1.175781 18.535156 -0.429688 18.546875 0.328125 L 17.0625 0.3125 L 5.109375 -16.140625 L 5.828125 -16.140625 L 5.71875 -7.296875 C 5.707031 -5.972656 5.707031 -4.914062 5.71875 -4.125 C 5.726562 -3.332031 5.75 -2.742188 5.78125 -2.359375 C 5.8125 -1.972656 5.835938 -1.738281 5.859375 -1.65625 L 8.109375 -1.15625 L 7.984375 0.09375 L 1.65625 0.015625 L 1.5625 -1.234375 L 3.578125 -1.671875 C 3.617188 -1.753906 3.65625 -1.984375 3.6875 -2.359375 C 3.71875 -2.734375 3.75 -3.320312 3.78125 -4.125 C 3.8125 -4.925781 3.832031 -5.988281 3.84375 -7.3125 L 3.90625 -12.953125 C 3.914062 -13.941406 3.914062 -14.753906 3.90625 -15.390625 C 3.894531 -16.035156 3.878906 -16.53125 3.859375 -16.875 C 3.835938 -17.226562 3.804688 -17.472656 3.765625 -17.609375 L 1.75 -18.109375 L 1.875 -19.359375 L 6.390625 -19.3125 L 17.3125 -4.53125 Z M 16.71875 -4.53125 "/></g></g></g><g fill="#3d3b3a" fill-opacity="1"><g transform="translate(212.381257, 41.630965)"><g><path d="M 17.296875 -1.015625 L 18.890625 -8.234375 C 19.171875 -9.503906 19.390625 -10.519531 19.546875 -11.28125 C 19.703125 -12.039062 19.800781 -12.613281 19.84375 -13 C 19.894531 -13.394531 19.921875 -13.617188 19.921875 -13.671875 L 17.84375 -14.625 L 18.1875 -15.828125 L 24.3125 -14.484375 L 24.15625 -13.234375 L 22.0625 -13.203125 C 22.039062 -13.148438 21.96875 -12.9375 21.84375 -12.5625 C 21.726562 -12.195312 21.578125 -11.628906 21.390625 -10.859375 C 21.203125 -10.097656 20.96875 -9.09375 20.6875 -7.84375 L 19 -0.171875 C 18.84375 0.515625 18.6875 1.210938 18.53125 1.921875 C 18.375 2.640625 18.222656 3.375 18.078125 4.125 L 16.625 3.796875 L 8.296875 -14.765625 L 9 -14.609375 L 7.109375 -5.96875 C 6.816406 -4.675781 6.59375 -3.640625 6.4375 -2.859375 C 6.28125 -2.078125 6.175781 -1.492188 6.125 -1.109375 C 6.082031 -0.734375 6.066406 -0.5 6.078125 -0.40625 L 8.171875 0.53125 L 7.796875 1.71875 L 1.625 0.359375 L 1.78125 -0.890625 L 3.859375 -0.90625 C 3.910156 -0.976562 3.988281 -1.195312 4.09375 -1.5625 C 4.195312 -1.925781 4.34375 -2.492188 4.53125 -3.265625 C 4.726562 -4.046875 4.972656 -5.082031 5.265625 -6.375 L 6.46875 -11.875 C 6.6875 -12.84375 6.851562 -13.640625 6.96875 -14.265625 C 7.082031 -14.898438 7.164062 -15.390625 7.21875 -15.734375 C 7.28125 -16.085938 7.304688 -16.332031 7.296875 -16.46875 L 5.421875 -17.375 L 5.796875 -18.5625 L 10.203125 -17.59375 L 17.875 -0.890625 Z M 17.296875 -1.015625 "/></g></g></g><g fill="#3d3b3a" fill-opacity="1"><g transform="translate(241.929171, 49.159197)"><g><path d="M 14.65625 6.5625 C 14.082031 6.238281 13.570312 5.96875 13.125 5.75 C 12.6875 5.53125 12.265625 5.335938 11.859375 5.171875 L 1.484375 0.65625 L 1.890625 -0.53125 L 3.953125 -0.15625 C 4.015625 -0.238281 4.132812 -0.457031 4.3125 -0.8125 C 4.488281 -1.175781 4.71875 -1.664062 5 -2.28125 C 5.289062 -2.894531 5.628906 -3.644531 6.015625 -4.53125 L 8.484375 -10.21875 C 8.890625 -11.132812 9.222656 -11.914062 9.484375 -12.5625 C 9.753906 -13.207031 9.957031 -13.710938 10.09375 -14.078125 C 10.226562 -14.453125 10.300781 -14.679688 10.3125 -14.765625 L 8.625 -16 L 9.21875 -17.109375 L 18.9375 -12.890625 C 19.21875 -12.765625 19.519531 -12.628906 19.84375 -12.484375 C 20.164062 -12.347656 20.507812 -12.210938 20.875 -12.078125 C 21.25 -11.953125 21.625 -11.816406 22 -11.671875 L 20.875 -7.4375 L 19.421875 -7.828125 L 19.53125 -10.796875 C 19.382812 -10.890625 19.210938 -10.988281 19.015625 -11.09375 C 18.828125 -11.195312 18.617188 -11.296875 18.390625 -11.390625 L 14.96875 -12.890625 C 14.59375 -13.054688 14.253906 -13.191406 13.953125 -13.296875 C 13.660156 -13.410156 13.359375 -13.515625 13.046875 -13.609375 C 13.015625 -13.523438 12.910156 -13.300781 12.734375 -12.9375 C 12.566406 -12.570312 12.375 -12.144531 12.15625 -11.65625 C 11.9375 -11.175781 11.722656 -10.703125 11.515625 -10.234375 L 7.953125 -2.046875 C 7.773438 -1.648438 7.597656 -1.238281 7.421875 -0.8125 C 7.242188 -0.394531 7.09375 -0.03125 6.96875 0.28125 C 6.851562 0.601562 6.765625 0.832031 6.703125 0.96875 C 7.003906 1.125 7.296875 1.273438 7.578125 1.421875 C 7.867188 1.578125 8.207031 1.738281 8.59375 1.90625 L 11.53125 3.1875 C 11.976562 3.375 12.34375 3.523438 12.625 3.640625 C 12.914062 3.753906 13.144531 3.835938 13.3125 3.890625 C 13.488281 3.941406 13.625 3.984375 13.71875 4.015625 L 16.5625 1.796875 L 17.796875 2.671875 Z M 14.046875 -1.265625 L 14.578125 -3.484375 C 14.492188 -3.566406 14.335938 -3.664062 14.109375 -3.78125 C 13.878906 -3.90625 13.59375 -4.039062 13.25 -4.1875 L 10.953125 -5.203125 C 10.691406 -5.316406 10.394531 -5.429688 10.0625 -5.546875 C 9.738281 -5.671875 9.410156 -5.789062 9.078125 -5.90625 L 9.8125 -7.5625 C 10.125 -7.40625 10.4375 -7.253906 10.75 -7.109375 C 11.0625 -6.972656 11.347656 -6.847656 11.609375 -6.734375 L 13.90625 -5.71875 C 14.25 -5.570312 14.539062 -5.445312 14.78125 -5.34375 C 15.03125 -5.25 15.210938 -5.203125 15.328125 -5.203125 L 16.609375 -7.140625 L 17.921875 -6.5625 L 15.359375 -0.6875 Z M 14.046875 -1.265625 "/></g></g></g><g fill="#3d3b3a" fill-opacity="1"><g transform="translate(266.105291, 60.453875)"><g><path d="M 9.875 7.078125 C 8.289062 6.003906 7.054688 4.71875 6.171875 3.21875 C 5.285156 1.71875 4.863281 0.101562 4.90625 -1.625 C 4.945312 -3.363281 5.570312 -5.125 6.78125 -6.90625 C 7.5625 -8.0625 8.492188 -9.007812 9.578125 -9.75 C 10.671875 -10.488281 11.863281 -10.984375 13.15625 -11.234375 C 14.457031 -11.484375 15.8125 -11.445312 17.21875 -11.125 C 18.625 -10.800781 20.039062 -10.15625 21.46875 -9.1875 C 22.207031 -8.6875 22.945312 -8.078125 23.6875 -7.359375 C 24.425781 -6.648438 25.03125 -5.9375 25.5 -5.21875 L 23.140625 -1.34375 L 21.859375 -2.078125 L 22.78125 -5.21875 C 22.601562 -5.695312 22.269531 -6.1875 21.78125 -6.6875 C 21.289062 -7.1875 20.785156 -7.613281 20.265625 -7.96875 C 18.898438 -8.90625 17.582031 -9.367188 16.3125 -9.359375 C 15.050781 -9.359375 13.882812 -9.003906 12.8125 -8.296875 C 11.738281 -7.585938 10.796875 -6.640625 9.984375 -5.453125 C 8.941406 -3.910156 8.320312 -2.421875 8.125 -0.984375 C 7.925781 0.441406 8.097656 1.742188 8.640625 2.921875 C 9.191406 4.097656 10.019531 5.0625 11.125 5.8125 C 11.695312 6.195312 12.265625 6.488281 12.828125 6.6875 C 13.398438 6.882812 13.988281 7.003906 14.59375 7.046875 L 17.546875 5.3125 L 18.703125 6.296875 L 15.625 9.21875 C 14.757812 9.09375 13.820312 8.863281 12.8125 8.53125 C 11.800781 8.207031 10.820312 7.722656 9.875 7.078125 Z M 9.875 7.078125 "/></g></g></g><g fill="#3d3b3a" fill-opacity="1"><g transform="translate(288.988135, 77.037547)"><g><path d="M 25.875 -1.75 L 22.609375 2.546875 L 21.484375 1.625 L 23.125 -1.984375 C 23.03125 -2.140625 22.90625 -2.300781 22.75 -2.46875 C 22.59375 -2.632812 22.453125 -2.78125 22.328125 -2.90625 L 21.484375 -3.75 C 21.335938 -3.90625 21.128906 -4.113281 20.859375 -4.375 C 20.597656 -4.644531 20.347656 -4.882812 20.109375 -5.09375 C 19.984375 -4.96875 19.6875 -4.675781 19.21875 -4.21875 C 18.75 -3.757812 18.210938 -3.226562 17.609375 -2.625 C 17.003906 -2.019531 16.421875 -1.4375 15.859375 -0.875 L 12.71875 2.28125 C 11.738281 3.269531 10.894531 4.128906 10.1875 4.859375 C 9.488281 5.597656 9.023438 6.085938 8.796875 6.328125 L 10.484375 8.59375 L 9.5 9.453125 L 3.53125 3.515625 L 4.40625 2.53125 L 6.671875 4.203125 C 6.898438 3.960938 7.378906 3.488281 8.109375 2.78125 C 8.835938 2.082031 9.691406 1.238281 10.671875 0.25 L 13.8125 -2.90625 C 14.375 -3.46875 14.957031 -4.050781 15.5625 -4.65625 C 16.164062 -5.257812 16.695312 -5.789062 17.15625 -6.25 C 17.625 -6.71875 17.914062 -7.019531 18.03125 -7.15625 C 17.84375 -7.363281 17.613281 -7.597656 17.34375 -7.859375 C 17.082031 -8.128906 16.875 -8.34375 16.71875 -8.5 L 15.796875 -9.421875 C 15.679688 -9.535156 15.546875 -9.664062 15.390625 -9.8125 C 15.234375 -9.957031 15.0625 -10.082031 14.875 -10.1875 L 11.28125 -8.46875 L 10.359375 -9.65625 L 14.65625 -12.9375 C 14.8125 -12.75 14.984375 -12.550781 15.171875 -12.34375 C 15.359375 -12.144531 15.539062 -11.941406 15.71875 -11.734375 C 15.894531 -11.535156 16.078125 -11.34375 16.265625 -11.15625 C 16.453125 -10.96875 16.640625 -10.78125 16.828125 -10.59375 L 23.515625 -3.9375 C 23.691406 -3.757812 23.875 -3.570312 24.0625 -3.375 C 24.257812 -3.1875 24.457031 -3.003906 24.65625 -2.828125 C 24.863281 -2.648438 25.066406 -2.46875 25.265625 -2.28125 C 25.460938 -2.101562 25.664062 -1.925781 25.875 -1.75 Z M 25.875 -1.75 "/></g></g></g><g clip-path="url(#cde499358d)"><g clip-path="url(#83465af815)"><g clip-path="url(#087a695bcf)"><g clip-path="url(#5e119ff9e2)"><path fill="#000000" d="M 288.40625 136.453125 C 288.398438 134.109375 287.566406 131.769531 286.0625 129.660156 C 284.355469 127.269531 282.511719 125.714844 280.378906 124.945312 C 278.25 124.175781 275.832031 124.1875 272.988281 124.941406 C 272.164062 125.15625 271.347656 125.40625 270.53125 125.664062 C 269.722656 125.921875 268.910156 126.1875 268.097656 126.449219 C 261.285156 128.617188 254.867188 131.554688 248.695312 134.953125 C 242.523438 138.347656 236.601562 142.203125 230.789062 146.203125 C 226.375 149.238281 221.882812 151.214844 217.222656 152.070312 C 212.566406 152.925781 207.738281 152.660156 202.65625 151.214844 C 194.832031 148.988281 187.023438 146.707031 179.210938 144.449219 C 171.398438 142.1875 163.578125 139.945312 155.734375 137.800781 C 151.566406 136.664062 147.371094 135.636719 143.152344 134.683594 C 138.933594 133.730469 134.699219 132.855469 130.460938 132.019531 C 129.082031 131.746094 127.488281 131.496094 126.046875 131.71875 C 124.605469 131.945312 123.3125 132.652344 122.527344 134.292969 C 121.730469 135.96875 122.027344 137.359375 122.796875 138.5625 C 123.570312 139.769531 124.816406 140.789062 125.917969 141.730469 C 128.296875 143.757812 130.699219 145.75 133.128906 147.714844 C 135.554688 149.679688 138.011719 151.609375 140.492188 153.507812 C 144.957031 156.925781 149.480469 160.269531 153.992188 163.632812 C 158.503906 166.996094 163 170.375 167.410156 173.863281 C 170.570312 176.363281 172.070312 178.824219 171.964844 181.257812 C 171.855469 183.6875 170.136719 186.09375 166.863281 188.480469 C 165.253906 189.652344 163.59375 190.753906 161.929688 191.851562 C 160.265625 192.953125 158.601562 194.050781 156.992188 195.222656 C 156.816406 195.347656 156.414062 195.746094 156.347656 196.3125 C 156.269531 196.988281 156.707031 197.753906 157.339844 198.003906 C 157.835938 198.199219 158.355469 198.066406 158.53125 197.953125 C 160.640625 196.605469 162.753906 195.257812 164.832031 193.859375 C 166.914062 192.464844 168.953125 191.023438 170.917969 189.480469 C 171.71875 188.855469 172.421875 188.027344 173.023438 187.113281 C 173.621094 186.199219 174.113281 185.199219 174.492188 184.226562 C 175.589844 181.394531 175.410156 178.957031 174.425781 176.828125 C 173.445312 174.695312 171.664062 172.867188 169.5625 171.257812 C 164.738281 167.558594 159.859375 163.929688 154.980469 160.296875 C 150.105469 156.667969 145.226562 153.039062 140.40625 149.332031 C 137.816406 147.34375 135.300781 145.261719 132.800781 143.15625 C 130.300781 141.050781 127.824219 138.917969 125.308594 136.828125 C 125.523438 136.328125 125.734375 135.824219 125.945312 135.320312 C 126.945312 135.355469 127.96875 135.304688 128.972656 135.300781 C 129.980469 135.300781 130.976562 135.347656 131.929688 135.578125 C 136.851562 136.761719 141.769531 137.964844 146.679688 139.203125 C 151.585938 140.441406 156.488281 141.707031 161.378906 143.015625 C 168.90625 145.027344 176.410156 147.132812 183.917969 149.207031 C 191.429688 151.285156 198.941406 153.335938 206.496094 155.242188 C 210.449219 156.242188 214.347656 156.425781 218.125 155.769531 C 221.898438 155.113281 225.550781 153.617188 229.011719 151.242188 C 230.28125 150.375 231.578125 149.554688 232.886719 148.746094 C 234.195312 147.9375 235.511719 147.140625 236.816406 146.320312 C 242.460938 142.761719 248.152344 139.292969 254.054688 136.25 C 259.953125 133.210938 266.0625 130.59375 272.542969 128.734375 C 275.136719 127.992188 277.1875 127.855469 278.902344 128.386719 C 280.617188 128.921875 281.996094 130.121094 283.25 132.050781 C 284.339844 133.730469 284.789062 135.542969 284.539062 137.390625 C 284.289062 139.242188 283.34375 141.121094 281.644531 142.941406 C 280.488281 144.179688 279.25 145.355469 277.957031 146.472656 C 276.664062 147.589844 275.320312 148.652344 273.953125 149.660156 C 267.667969 154.28125 261.351562 158.859375 255.039062 163.441406 C 248.722656 168.019531 242.40625 172.601562 236.125 177.226562 C 232.367188 179.996094 229.714844 183.355469 227.9375 187.152344 C 226.160156 190.949219 225.257812 195.179688 224.984375 199.695312 C 224.425781 208.9375 223.933594 218.1875 223.410156 227.433594 C 222.890625 236.679688 222.351562 245.921875 221.707031 255.160156 C 221.539062 257.582031 221.132812 259.996094 220.613281 262.390625 C 220.09375 264.789062 219.457031 267.167969 218.832031 269.527344 C 218.652344 270.203125 218.15625 270.949219 217.542969 271.5625 C 216.929688 272.171875 216.199219 272.652344 215.546875 272.789062 C 215.105469 272.882812 214.480469 272.484375 213.867188 271.910156 C 213.253906 271.335938 212.652344 270.585938 212.269531 269.96875 C 211.765625 269.164062 211.3125 268.292969 210.941406 267.390625 C 210.570312 266.484375 210.285156 265.550781 210.105469 264.621094 C 209 258.824219 207.964844 253.015625 206.921875 247.207031 C 205.875 241.402344 204.824219 235.597656 203.703125 229.804688 C 203.152344 226.96875 202.601562 224.117188 201.945312 221.292969 C 201.289062 218.472656 200.527344 215.683594 199.550781 212.980469 C 198.519531 210.113281 196.746094 208.21875 194.515625 207.304688 C 192.285156 206.390625 189.59375 206.460938 186.71875 207.511719 C 185.496094 207.960938 184.316406 208.523438 183.144531 209.109375 C 181.972656 209.695312 180.808594 210.308594 179.621094 210.855469 C 174.84375 213.074219 170.023438 214.414062 165.121094 214.792969 C 160.21875 215.175781 155.234375 214.605469 150.121094 213.003906 C 144.476562 211.238281 138.789062 209.59375 133.03125 208.269531 C 127.273438 206.945312 121.441406 205.9375 115.507812 205.441406 C 114.03125 205.320312 112.4375 205.101562 111.011719 205.296875 C 109.582031 205.492188 108.324219 206.101562 107.523438 207.636719 C 106.683594 209.234375 106.957031 210.625 107.6875 211.878906 C 108.417969 213.132812 109.601562 214.253906 110.578125 215.320312 C 112.839844 217.796875 115.136719 220.25 117.445312 222.683594 C 119.757812 225.117188 122.089844 227.535156 124.429688 229.945312 C 127.140625 232.734375 129.238281 235.757812 130.589844 239.070312 C 131.941406 242.382812 132.542969 245.984375 132.257812 249.933594 C 131.917969 254.667969 133.5625 257.625 136.136719 259.300781 C 138.714844 260.972656 142.21875 261.363281 145.605469 260.96875 C 147.363281 260.761719 148.714844 260.164062 149.617188 259.179688 C 150.523438 258.195312 150.980469 256.8125 150.960938 255.042969 C 150.929688 252.71875 150.824219 250.398438 150.675781 248.074219 C 150.527344 245.753906 150.332031 243.433594 150.125 241.117188 C 150.007812 239.824219 149.859375 238.519531 149.640625 237.230469 C 149.421875 235.941406 149.136719 234.671875 148.75 233.433594 C 148.679688 233.203125 148.523438 233.003906 148.308594 232.820312 C 148.277344 232.789062 147.964844 232.476562 147.566406 232.3125 C 146.824219 232.007812 145.710938 232.175781 145.109375 232.910156 C 144.679688 233.433594 144.675781 234.050781 144.652344 234.46875 C 144.621094 235.007812 144.78125 235.546875 144.964844 236.09375 C 145.148438 236.640625 145.363281 237.191406 145.441406 237.746094 C 145.824219 240.328125 146.257812 242.902344 146.640625 245.480469 C 147.023438 248.058594 147.355469 250.644531 147.542969 253.238281 C 147.683594 255.152344 147.386719 256.351562 146.578125 257.027344 C 145.769531 257.699219 144.441406 257.847656 142.519531 257.652344 C 139.886719 257.386719 138.128906 256.878906 137.0625 255.773438 C 135.996094 254.671875 135.625 252.976562 135.761719 250.328125 C 136 245.671875 135.273438 241.460938 133.683594 237.605469 C 132.097656 233.746094 129.648438 230.246094 126.453125 227.007812 C 124.535156 225.066406 122.632812 223.105469 120.738281 221.136719 C 118.847656 219.164062 116.972656 217.179688 115.105469 215.1875 C 114.3125 214.34375 113.566406 213.449219 112.78125 212.488281 C 111.992188 211.523438 111.167969 210.484375 110.21875 209.339844 C 110.996094 209.269531 111.570312 209.199219 112.046875 209.148438 C 112.523438 209.097656 112.898438 209.070312 113.269531 209.078125 C 119.320312 209.226562 125.242188 210.117188 131.0625 211.429688 C 136.886719 212.742188 142.613281 214.484375 148.273438 216.328125 C 154.390625 218.320312 160.257812 218.945312 165.988281 218.367188 C 171.71875 217.789062 177.3125 216.003906 182.867188 213.171875 C 183.726562 212.734375 184.589844 212.289062 185.464844 211.875 C 186.339844 211.460938 187.226562 211.082031 188.136719 210.773438 C 190.140625 210.089844 191.832031 210.023438 193.214844 210.613281 C 194.597656 211.199219 195.664062 212.445312 196.421875 214.402344 C 197.074219 216.085938 197.660156 217.8125 198.160156 219.566406 C 198.65625 221.320312 199.070312 223.09375 199.363281 224.875 C 200.195312 229.859375 200.867188 234.878906 201.578125 239.886719 C 202.09375 243.535156 202.722656 247.308594 204.003906 254.847656 C 204.003906 254.847656 204.574219 258.191406 205.730469 262.941406 C 206.582031 266.445312 207.183594 268.332031 208.300781 270.421875 C 209.023438 271.777344 210.144531 273.546875 211.957031 274.957031 C 212.921875 275.703125 214.007812 276.253906 215.257812 276.507812 C 216.71875 276.804688 218.003906 276.351562 219.042969 275.496094 C 220.085938 274.636719 220.890625 273.367188 221.40625 272.035156 C 221.980469 270.558594 222.480469 269.046875 222.910156 267.511719 C 223.339844 265.976562 223.703125 264.425781 223.996094 262.867188 C 225.742188 253.488281 226.589844 244.035156 227.066406 234.558594 C 227.539062 225.082031 227.644531 215.578125 227.90625 206.105469 C 228.085938 199.664062 229.15625 193.953125 231.546875 188.941406 C 233.9375 183.933594 237.644531 179.617188 243.101562 175.972656 C 248.449219 172.398438 253.71875 168.703125 258.945312 164.949219 C 264.171875 161.1875 269.351562 157.367188 274.515625 153.527344 C 276.554688 152.015625 278.558594 150.410156 280.464844 148.699219 C 282.371094 146.992188 284.175781 145.179688 285.808594 143.253906 C 287.601562 141.140625 288.421875 138.792969 288.410156 136.449219 Z M 288.40625 136.453125 " fill-opacity="1" fill-rule="nonzero"/></g></g></g></g><g clip-path="url(#36e67c8b71)"><g clip-path="url(#d0cb15de6b)"><g clip-path="url(#0e07a9beec)"><path fill="#3d3b3a" d="M 160.136719 344.242188 C 162.601562 344.777344 165.074219 345.253906 167.5625 345.667969 C 170.046875 346.082031 172.539062 346.433594 175.042969 346.730469 C 177.546875 347.023438 180.054688 347.253906 182.566406 347.425781 C 185.082031 347.597656 187.597656 347.710938 190.117188 347.757812 C 192.636719 347.808594 195.152344 347.796875 197.671875 347.726562 C 200.191406 347.652344 202.703125 347.519531 205.214844 347.324219 C 207.726562 347.132812 210.234375 346.875 212.730469 346.5625 C 215.230469 346.246094 217.722656 345.867188 220.203125 345.433594 C 222.683594 344.996094 225.152344 344.5 227.605469 343.941406 C 230.0625 343.386719 232.503906 342.769531 234.933594 342.097656 C 237.359375 341.421875 239.765625 340.6875 242.15625 339.894531 C 244.546875 339.105469 246.917969 338.253906 249.269531 337.347656 C 251.617188 336.441406 253.945312 335.480469 256.246094 334.460938 C 258.550781 333.441406 260.824219 332.363281 263.074219 331.234375 C 265.328125 330.105469 267.546875 328.921875 269.742188 327.683594 C 271.933594 326.445312 274.097656 325.15625 276.226562 323.8125 C 278.355469 322.46875 280.453125 321.074219 282.515625 319.628906 C 284.578125 318.1875 286.605469 316.691406 288.59375 315.148438 C 290.585938 313.605469 292.535156 312.015625 294.449219 310.378906 C 296.363281 308.742188 298.234375 307.058594 300.066406 305.328125 C 301.898438 303.601562 303.6875 301.828125 305.433594 300.011719 C 307.175781 298.195312 308.878906 296.339844 310.535156 294.441406 C 312.1875 292.542969 313.796875 290.605469 315.359375 288.628906 C 316.921875 286.65625 318.433594 284.640625 319.894531 282.589844 C 321.359375 280.542969 322.773438 278.457031 324.136719 276.339844 C 325.5 274.222656 326.808594 272.070312 328.070312 269.890625 C 329.328125 267.707031 330.53125 265.496094 331.683594 263.253906 C 332.835938 261.015625 333.929688 258.746094 334.972656 256.453125 C 336.015625 254.160156 337 251.839844 337.929688 249.5 C 338.859375 247.15625 339.730469 244.792969 340.542969 242.410156 C 341.359375 240.023438 342.113281 237.621094 342.8125 235.199219 C 343.511719 232.777344 344.148438 230.34375 344.730469 227.890625 C 354.285156 187.917969 348.0625 146.5625 327.210938 111.457031 C 327.109375 111.304688 326.980469 111.175781 326.824219 111.070312 C 326.671875 110.964844 326.503906 110.890625 326.324219 110.851562 C 326.140625 110.8125 325.957031 110.804688 325.773438 110.835938 C 325.59375 110.863281 325.421875 110.925781 325.261719 111.023438 C 325.101562 111.117188 324.964844 111.238281 324.851562 111.386719 C 324.738281 111.53125 324.65625 111.695312 324.605469 111.875 C 324.554688 112.050781 324.539062 112.234375 324.554688 112.417969 C 324.574219 112.605469 324.625 112.777344 324.710938 112.945312 C 366.851562 183.90625 344.402344 277.394531 274.671875 321.347656 C 204.945312 365.300781 110.914062 345.230469 65.070312 276.605469 C 64.957031 276.457031 64.820312 276.335938 64.660156 276.238281 C 64.503906 276.140625 64.332031 276.078125 64.148438 276.046875 C 63.964844 276.015625 63.785156 276.019531 63.601562 276.058594 C 63.421875 276.097656 63.253906 276.167969 63.097656 276.269531 C 62.941406 276.375 62.8125 276.5 62.707031 276.65625 C 62.601562 276.808594 62.527344 276.972656 62.488281 277.15625 C 62.445312 277.335938 62.4375 277.519531 62.464844 277.703125 C 62.492188 277.886719 62.554688 278.058594 62.648438 278.21875 C 85.332031 312.175781 119.953125 335.621094 160.136719 344.242188 Z M 160.136719 344.242188 " fill-opacity="1" fill-rule="evenodd"/></g></g></g></svg>